<svg width="482" height="243" viewBox="0 0 482 243" fill="none" xmlns="http://www.w3.org/2000/svg">
<line x1="10.25" y1="212" x2="10.25" y2="3.27835e-08" stroke="#EAEAEA" stroke-width="1.5" stroke-dasharray="8 8"/>
<path d="M11.0931 228.746C9.24513 228.746 7.91513 230.412 7.91513 233.478C7.94313 236.488 9.16113 238.154 10.9391 238.154C12.9411 238.154 14.1031 236.446 14.1031 233.352C14.1031 230.454 12.9971 228.746 11.0931 228.746ZM11.0091 229.698C12.2971 229.698 12.8571 231.168 12.8571 233.408C12.8571 235.732 12.2551 237.202 11.0091 237.202C9.88913 237.202 9.16113 235.858 9.16113 233.492C9.16113 231.014 9.94513 229.698 11.0091 229.698Z" fill="#B8B8B8"/>
<line x1="56.25" y1="212" x2="56.25" y2="3.27835e-08" stroke="#EAEAEA" stroke-width="1.5" stroke-dasharray="8 8"/>
<path d="M53.1963 238H54.3863V228.9H53.3363L51.3483 229.964L51.5863 230.902L53.1683 230.048H53.1963V238ZM60.612 228.746C58.764 228.746 57.434 230.412 57.434 233.478C57.462 236.488 58.68 238.154 60.458 238.154C62.46 238.154 63.622 236.446 63.622 233.352C63.622 230.454 62.516 228.746 60.612 228.746ZM60.528 229.698C61.816 229.698 62.376 231.168 62.376 233.408C62.376 235.732 61.774 237.202 60.528 237.202C59.408 237.202 58.68 235.858 58.68 233.492C58.68 231.014 59.464 229.698 60.528 229.698Z" fill="#B8B8B8"/>
<line x1="102.25" y1="212" x2="102.25" y2="3.27835e-08" stroke="#EAEAEA" stroke-width="1.5" stroke-dasharray="8 8"/>
<path d="M102.332 238V236.978H98.2583V236.95L98.9723 236.278C100.89 234.43 102.108 233.072 102.108 231.392C102.108 230.09 101.282 228.746 99.3223 228.746C98.2863 228.746 97.3763 229.152 96.7603 229.67L97.1523 230.538C97.5723 230.188 98.2583 229.768 99.0843 229.768C100.442 229.768 100.876 230.622 100.876 231.546C100.876 232.918 99.8123 234.094 97.4883 236.306L96.5223 237.244V238H102.332ZM106.612 228.746C104.764 228.746 103.434 230.412 103.434 233.478C103.462 236.488 104.68 238.154 106.458 238.154C108.46 238.154 109.622 236.446 109.622 233.352C109.622 230.454 108.516 228.746 106.612 228.746ZM106.528 229.698C107.816 229.698 108.376 231.168 108.376 233.408C108.376 235.732 107.774 237.202 106.528 237.202C105.408 237.202 104.68 235.858 104.68 233.492C104.68 231.014 105.464 229.698 106.528 229.698Z" fill="#B8B8B8"/>
<line x1="148.25" y1="212" x2="148.25" y2="3.27835e-08" stroke="#EAEAEA" stroke-width="1.5" stroke-dasharray="8 8"/>
<path d="M142.48 237.538C142.928 237.832 143.824 238.154 144.846 238.154C147.016 238.154 148.164 236.88 148.164 235.424C148.15 234.15 147.254 233.31 146.134 233.1V233.072C147.24 232.666 147.814 231.868 147.814 230.916C147.814 229.81 147.002 228.746 145.21 228.746C144.23 228.746 143.306 229.096 142.816 229.446L143.152 230.342C143.544 230.062 144.244 229.74 144.972 229.74C146.106 229.74 146.568 230.384 146.568 231.112C146.568 232.19 145.434 232.652 144.538 232.652H143.852V233.576H144.538C145.728 233.576 146.876 234.122 146.89 235.396C146.904 236.166 146.4 237.16 144.832 237.16C143.964 237.16 143.166 236.81 142.816 236.6L142.48 237.538ZM152.612 228.746C150.764 228.746 149.434 230.412 149.434 233.478C149.462 236.488 150.68 238.154 152.458 238.154C154.46 238.154 155.622 236.446 155.622 233.352C155.622 230.454 154.516 228.746 152.612 228.746ZM152.528 229.698C153.816 229.698 154.376 231.168 154.376 233.408C154.376 235.732 153.774 237.202 152.528 237.202C151.408 237.202 150.68 235.858 150.68 233.492C150.68 231.014 151.464 229.698 152.528 229.698Z" fill="#B8B8B8"/>
<line x1="194.25" y1="212" x2="194.25" y2="3.27835e-08" stroke="#EAEAEA" stroke-width="1.5" stroke-dasharray="8 8"/>
<path d="M193.492 238V235.508H194.766V234.556H193.492V228.9H192.162L188.102 234.71V235.508H192.33V238H193.492ZM189.348 234.556V234.528L191.574 231.434C191.826 231.014 192.05 230.622 192.33 230.09H192.372C192.344 230.566 192.33 231.042 192.33 231.518V234.556H189.348ZM198.612 228.746C196.764 228.746 195.434 230.412 195.434 233.478C195.462 236.488 196.68 238.154 198.458 238.154C200.46 238.154 201.622 236.446 201.622 233.352C201.622 230.454 200.516 228.746 198.612 228.746ZM198.528 229.698C199.816 229.698 200.376 231.168 200.376 233.408C200.376 235.732 199.774 237.202 198.528 237.202C197.408 237.202 196.68 235.858 196.68 233.492C196.68 231.014 197.464 229.698 198.528 229.698Z" fill="#B8B8B8"/>
<line x1="240.25" y1="212" x2="240.25" y2="3.27835e-08" stroke="#EAEAEA" stroke-width="1.5" stroke-dasharray="8 8"/>
<path d="M239.954 228.9H235.6L235.012 233.268C235.348 233.226 235.754 233.184 236.286 233.184C238.092 233.184 238.89 234.01 238.89 235.186C238.904 236.404 237.896 237.16 236.748 237.16C235.908 237.16 235.166 236.88 234.788 236.656L234.48 237.594C234.928 237.874 235.754 238.154 236.748 238.154C238.722 238.154 240.136 236.824 240.136 235.046C240.136 233.912 239.548 233.114 238.834 232.722C238.274 232.372 237.588 232.232 236.874 232.232C236.538 232.232 236.342 232.246 236.132 232.274L236.482 229.936H239.954V228.9ZM244.612 228.746C242.764 228.746 241.434 230.412 241.434 233.478C241.462 236.488 242.68 238.154 244.458 238.154C246.46 238.154 247.622 236.446 247.622 233.352C247.622 230.454 246.516 228.746 244.612 228.746ZM244.528 229.698C245.816 229.698 246.376 231.168 246.376 233.408C246.376 235.732 245.774 237.202 244.528 237.202C243.408 237.202 242.68 235.858 242.68 233.492C242.68 231.014 243.464 229.698 244.528 229.698Z" fill="#B8B8B8"/>
<line x1="286.25" y1="212" x2="286.25" y2="3.27835e-08" stroke="#EAEAEA" stroke-width="1.5" stroke-dasharray="8 8"/>
<path d="M285.716 228.76C285.492 228.76 285.184 228.774 284.82 228.83C283.672 228.97 282.664 229.432 281.908 230.174C280.998 231.07 280.368 232.484 280.368 234.276C280.368 236.642 281.642 238.154 283.574 238.154C285.478 238.154 286.612 236.614 286.612 234.934C286.612 233.17 285.478 231.994 283.868 231.994C282.86 231.994 282.09 232.47 281.656 233.058H281.628C281.838 231.546 282.846 230.146 284.792 229.838C285.142 229.782 285.464 229.754 285.716 229.768V228.76ZM283.602 237.202C282.3 237.202 281.6 236.082 281.586 234.584C281.586 234.36 281.642 234.192 281.712 234.052C282.048 233.38 282.748 232.932 283.49 232.932C284.624 232.932 285.366 233.716 285.366 235.018C285.366 236.32 284.652 237.202 283.602 237.202ZM290.612 228.746C288.764 228.746 287.434 230.412 287.434 233.478C287.462 236.488 288.68 238.154 290.458 238.154C292.46 238.154 293.622 236.446 293.622 233.352C293.622 230.454 292.516 228.746 290.612 228.746ZM290.528 229.698C291.816 229.698 292.376 231.168 292.376 233.408C292.376 235.732 291.774 237.202 290.528 237.202C289.408 237.202 288.68 235.858 288.68 233.492C288.68 231.014 289.464 229.698 290.528 229.698Z" fill="#B8B8B8"/>
<line x1="332.25" y1="212" x2="332.25" y2="3.27835e-08" stroke="#EAEAEA" stroke-width="1.5" stroke-dasharray="8 8"/>
<path d="M326.69 228.9V229.922H331.142V229.95L327.194 238H328.468L332.43 229.712V228.9H326.69ZM336.612 228.746C334.764 228.746 333.434 230.412 333.434 233.478C333.462 236.488 334.68 238.154 336.458 238.154C338.46 238.154 339.622 236.446 339.622 233.352C339.622 230.454 338.516 228.746 336.612 228.746ZM336.528 229.698C337.816 229.698 338.376 231.168 338.376 233.408C338.376 235.732 337.774 237.202 336.528 237.202C335.408 237.202 334.68 235.858 334.68 233.492C334.68 231.014 335.464 229.698 336.528 229.698Z" fill="#B8B8B8"/>
<line x1="378.25" y1="212" x2="378.25" y2="3.27835e-08" stroke="#EAEAEA" stroke-width="1.5" stroke-dasharray="8 8"/>
<path d="M374.216 233.254C373.096 233.73 372.41 234.556 372.41 235.704C372.41 237.034 373.558 238.154 375.462 238.154C377.198 238.154 378.556 237.104 378.556 235.508C378.556 234.416 377.856 233.604 376.722 233.156V233.114C377.842 232.596 378.234 231.756 378.234 230.986C378.234 229.838 377.338 228.746 375.574 228.746C373.964 228.746 372.746 229.726 372.746 231.168C372.746 231.952 373.18 232.736 374.202 233.212L374.216 233.254ZM375.49 237.258C374.328 237.258 373.628 236.446 373.67 235.536C373.67 234.668 374.244 233.954 375.308 233.646C376.54 233.996 377.31 234.542 377.31 235.634C377.31 236.572 376.596 237.258 375.49 237.258ZM375.504 229.628C376.61 229.628 377.044 230.384 377.044 231.112C377.044 231.938 376.442 232.498 375.658 232.764C374.608 232.484 373.908 231.994 373.922 231.084C373.922 230.3 374.482 229.628 375.504 229.628ZM382.612 228.746C380.764 228.746 379.434 230.412 379.434 233.478C379.462 236.488 380.68 238.154 382.458 238.154C384.46 238.154 385.622 236.446 385.622 233.352C385.622 230.454 384.516 228.746 382.612 228.746ZM382.528 229.698C383.816 229.698 384.376 231.168 384.376 233.408C384.376 235.732 383.774 237.202 382.528 237.202C381.408 237.202 380.68 235.858 380.68 233.492C380.68 231.014 381.464 229.698 382.528 229.698Z" fill="#B8B8B8"/>
<line x1="424.25" y1="212" x2="424.25" y2="3.27835e-08" stroke="#EAEAEA" stroke-width="1.5" stroke-dasharray="8 8"/>
<path d="M419.236 238.14C419.53 238.154 419.922 238.14 420.37 238.07C421.35 237.958 422.316 237.538 423.016 236.852C423.912 235.984 424.584 234.584 424.584 232.596C424.584 230.244 423.436 228.746 421.574 228.746C419.712 228.746 418.466 230.258 418.466 231.98C418.466 233.534 419.516 234.766 421.14 234.766C422.064 234.766 422.792 234.416 423.296 233.8H423.338C423.17 234.864 422.736 235.662 422.134 236.208C421.616 236.712 420.944 236.992 420.23 237.09C419.81 237.132 419.502 237.16 419.236 237.132V238.14ZM421.462 229.684C422.764 229.684 423.338 230.874 423.338 232.428C423.338 232.638 423.296 232.764 423.226 232.89C422.904 233.436 422.26 233.842 421.434 233.842C420.37 233.842 419.684 233.044 419.684 231.91C419.684 230.608 420.426 229.684 421.462 229.684ZM428.612 228.746C426.764 228.746 425.434 230.412 425.434 233.478C425.462 236.488 426.68 238.154 428.458 238.154C430.46 238.154 431.622 236.446 431.622 233.352C431.622 230.454 430.516 228.746 428.612 228.746ZM428.528 229.698C429.816 229.698 430.376 231.168 430.376 233.408C430.376 235.732 429.774 237.202 428.528 237.202C427.408 237.202 426.68 235.858 426.68 233.492C426.68 231.014 427.464 229.698 428.528 229.698Z" fill="#B8B8B8"/>
<line x1="470.25" y1="212" x2="470.25" y2="3.27835e-08" stroke="#EAEAEA" stroke-width="1.5" stroke-dasharray="8 8"/>
<path d="M463.677 238H464.867V228.9H463.817L461.829 229.964L462.067 230.902L463.649 230.048H463.677V238ZM471.093 228.746C469.245 228.746 467.915 230.412 467.915 233.478C467.943 236.488 469.161 238.154 470.939 238.154C472.941 238.154 474.103 236.446 474.103 233.352C474.103 230.454 472.997 228.746 471.093 228.746ZM471.009 229.698C472.297 229.698 472.857 231.168 472.857 233.408C472.857 235.732 472.255 237.202 471.009 237.202C469.889 237.202 469.161 235.858 469.161 233.492C469.161 231.014 469.945 229.698 471.009 229.698ZM478.131 228.746C476.283 228.746 474.953 230.412 474.953 233.478C474.981 236.488 476.199 238.154 477.977 238.154C479.979 238.154 481.141 236.446 481.141 233.352C481.141 230.454 480.035 228.746 478.131 228.746ZM478.047 229.698C479.335 229.698 479.895 231.168 479.895 233.408C479.895 235.732 479.293 237.202 478.047 237.202C476.927 237.202 476.199 235.858 476.199 233.492C476.199 231.014 476.983 229.698 478.047 229.698Z" fill="#B8B8B8"/>
</svg>
